<?xml version="1.0" standalone="no"?>
<!DOCTYPE svg PUBLIC "-//W3C//DTD SVG 20010904//EN"
 "http://www.w3.org/TR/2001/REC-SVG-20010904/DTD/svg10.dtd">
<svg version="1.0" xmlns="http://www.w3.org/2000/svg"
 width="456.000000pt" height="443.000000pt" viewBox="0 0 456.000000 443.000000"
 preserveAspectRatio="xMidYMid meet">

<g transform="translate(0.000000,443.000000) scale(0.100000,-0.100000)"
fill="#000000" stroke="none">
<path d="M175 4415 c-5 -2 -22 -6 -37 -9 -63 -14 -128 -103 -128 -176 0 -70
54 -145 125 -176 11 -4 130 -10 264 -13 l245 -6 22 -75 c12 -41 129 -433 259
-870 130 -437 279 -940 332 -1117 l96 -322 -30 -68 c-56 -124 -68 -171 -68
-278 0 -94 2 -105 33 -167 52 -106 142 -170 289 -204 95 -22 219 -21 503 4
704 62 1456 105 1800 101 184 -2 212 3 252 47 24 28 37 88 28 129 -9 42 -32
70 -75 93 -87 47 -952 13 -2030 -79 -268 -23 -367 -25 -428 -8 -52 13 -87 45
-87 76 0 31 20 112 30 118 4 2 326 43 716 90 844 102 1066 129 1279 155 88 11
239 29 335 40 195 23 228 31 268 65 44 37 58 82 106 335 25 129 93 483 152
785 123 636 130 677 120 728 -7 38 -52 98 -90 120 -16 9 -407 13 -1681 17
l-1660 5 -82 273 c-48 161 -92 289 -106 311 -49 73 -61 76 -422 78 -176 1
-324 0 -330 -2z m2003 -1342 l-3 -308 -382 -3 -382 -2 -20 67 c-114 381 -161
539 -161 546 0 4 214 7 475 7 l475 0 -2 -307z m962 -3 l0 -310 -395 0 -395 0
0 310 0 310 395 0 395 0 0 -310z m1000 303 c0 -5 -26 -143 -58 -308 l-58 -300
-357 -3 -357 -2 0 310 0 310 415 0 c228 0 415 -3 415 -7z m-1965 -1148 l0
-359 -225 -28 c-124 -15 -232 -27 -241 -28 -12 0 -41 87 -127 374 -62 206
-112 382 -112 390 0 15 36 16 353 14 l352 -3 0 -360z m965 60 c0 -237 -3 -305
-12 -305 -7 0 -178 -20 -380 -45 -203 -25 -375 -45 -383 -45 -13 0 -15 45 -15
350 l0 350 395 0 395 0 0 -305z m850 303 c-1 -11 -100 -511 -102 -513 -7 -6
-569 -71 -573 -66 -3 2 -5 134 -5 293 l0 288 340 0 c187 0 340 -1 340 -2z"/>
<path d="M1464 750 c-106 -21 -215 -108 -262 -208 -24 -51 -27 -69 -27 -162 1
-126 18 -173 95 -254 70 -74 144 -108 246 -114 145 -8 258 47 336 164 48 71
62 120 61 217 0 69 -5 87 -37 152 -78 158 -240 239 -412 205z"/>
<path d="M3630 749 c-213 -42 -347 -269 -281 -477 55 -171 198 -269 380 -260
138 7 252 81 314 207 30 61 32 73 32 166 -1 90 -3 106 -29 157 -52 103 -146
179 -255 204 -63 15 -96 16 -161 3z"/>
</g>
</svg>
